<mxfile host="Electron" agent="Mozilla/5.0 (Windows NT 10.0; Win64; x64) AppleWebKit/537.36 (KHTML, like Gecko) draw.io/24.7.8 Chrome/128.0.6613.36 Electron/32.0.1 Safari/537.36" version="24.7.8">
  <diagram name="1 oldal" id="5pZi-d70ElCE_qXbReFY">
    <mxGraphModel dx="1257" dy="760" grid="1" gridSize="10" guides="1" tooltips="1" connect="1" arrows="1" fold="1" page="1" pageScale="1" pageWidth="827" pageHeight="1169" math="0" shadow="0">
      <root>
        <mxCell id="0" />
        <mxCell id="1" parent="0" />
        <mxCell id="acf5ywF1OzFSCXKGkQIr-1" value="Kurzusfelvetel" style="ellipse;whiteSpace=wrap;html=1;" vertex="1" parent="1">
          <mxGeometry x="340" y="10" width="120" height="80" as="geometry" />
        </mxCell>
        <mxCell id="acf5ywF1OzFSCXKGkQIr-2" value="tanev" style="rhombus;whiteSpace=wrap;html=1;" vertex="1" parent="1">
          <mxGeometry x="540" y="10" width="80" height="80" as="geometry" />
        </mxCell>
        <mxCell id="acf5ywF1OzFSCXKGkQIr-3" value="egyetem" style="rhombus;whiteSpace=wrap;html=1;" vertex="1" parent="1">
          <mxGeometry x="180" y="10" width="80" height="80" as="geometry" />
        </mxCell>
        <mxCell id="acf5ywF1OzFSCXKGkQIr-5" value="" style="endArrow=none;html=1;rounded=0;" edge="1" parent="1" source="acf5ywF1OzFSCXKGkQIr-1" target="acf5ywF1OzFSCXKGkQIr-3">
          <mxGeometry width="50" height="50" relative="1" as="geometry">
            <mxPoint x="380" y="330" as="sourcePoint" />
            <mxPoint x="430" y="280" as="targetPoint" />
          </mxGeometry>
        </mxCell>
        <mxCell id="acf5ywF1OzFSCXKGkQIr-6" value="" style="endArrow=none;html=1;rounded=0;entryX=0;entryY=0.5;entryDx=0;entryDy=0;" edge="1" parent="1" source="acf5ywF1OzFSCXKGkQIr-1" target="acf5ywF1OzFSCXKGkQIr-2">
          <mxGeometry width="50" height="50" relative="1" as="geometry">
            <mxPoint x="380" y="330" as="sourcePoint" />
            <mxPoint x="430" y="280" as="targetPoint" />
          </mxGeometry>
        </mxCell>
        <mxCell id="acf5ywF1OzFSCXKGkQIr-7" value="Hallgato" style="ellipse;whiteSpace=wrap;html=1;" vertex="1" parent="1">
          <mxGeometry x="150" y="150" width="120" height="80" as="geometry" />
        </mxCell>
        <mxCell id="acf5ywF1OzFSCXKGkQIr-8" value="" style="ellipse;whiteSpace=wrap;html=1;" vertex="1" parent="1">
          <mxGeometry x="600" y="140" width="120" height="80" as="geometry" />
        </mxCell>
        <mxCell id="acf5ywF1OzFSCXKGkQIr-9" value="Kurzusok" style="ellipse;whiteSpace=wrap;html=1;" vertex="1" parent="1">
          <mxGeometry x="610" y="150" width="100" height="60" as="geometry" />
        </mxCell>
        <mxCell id="acf5ywF1OzFSCXKGkQIr-10" value="hnev" style="ellipse;whiteSpace=wrap;html=1;" vertex="1" parent="1">
          <mxGeometry x="20" y="270" width="80" height="50" as="geometry" />
        </mxCell>
        <mxCell id="acf5ywF1OzFSCXKGkQIr-11" value="szulev" style="ellipse;whiteSpace=wrap;html=1;" vertex="1" parent="1">
          <mxGeometry x="170" y="270" width="80" height="50" as="geometry" />
        </mxCell>
        <mxCell id="acf5ywF1OzFSCXKGkQIr-12" value="szak" style="ellipse;whiteSpace=wrap;html=1;" vertex="1" parent="1">
          <mxGeometry x="310" y="270" width="80" height="50" as="geometry" />
        </mxCell>
        <mxCell id="acf5ywF1OzFSCXKGkQIr-13" value="Borbély Ádám" style="rounded=0;whiteSpace=wrap;html=1;" vertex="1" parent="1">
          <mxGeometry x="20" y="370" width="80" height="40" as="geometry" />
        </mxCell>
        <mxCell id="acf5ywF1OzFSCXKGkQIr-14" value="2001.08.19" style="rounded=0;whiteSpace=wrap;html=1;" vertex="1" parent="1">
          <mxGeometry x="170" y="370" width="80" height="40" as="geometry" />
        </mxCell>
        <mxCell id="acf5ywF1OzFSCXKGkQIr-15" value="Mérnökinfomatika" style="rounded=0;whiteSpace=wrap;html=1;" vertex="1" parent="1">
          <mxGeometry x="295" y="370" width="110" height="40" as="geometry" />
        </mxCell>
        <mxCell id="acf5ywF1OzFSCXKGkQIr-16" value="" style="endArrow=none;html=1;rounded=0;exitX=0.644;exitY=0.071;exitDx=0;exitDy=0;exitPerimeter=0;" edge="1" parent="1" source="acf5ywF1OzFSCXKGkQIr-15" target="acf5ywF1OzFSCXKGkQIr-12">
          <mxGeometry width="50" height="50" relative="1" as="geometry">
            <mxPoint x="380" y="330" as="sourcePoint" />
            <mxPoint x="430" y="280" as="targetPoint" />
          </mxGeometry>
        </mxCell>
        <mxCell id="acf5ywF1OzFSCXKGkQIr-17" value="" style="endArrow=none;html=1;rounded=0;" edge="1" parent="1" source="acf5ywF1OzFSCXKGkQIr-14" target="acf5ywF1OzFSCXKGkQIr-11">
          <mxGeometry width="50" height="50" relative="1" as="geometry">
            <mxPoint x="380" y="330" as="sourcePoint" />
            <mxPoint x="430" y="280" as="targetPoint" />
          </mxGeometry>
        </mxCell>
        <mxCell id="acf5ywF1OzFSCXKGkQIr-18" value="" style="endArrow=none;html=1;rounded=0;" edge="1" parent="1" source="acf5ywF1OzFSCXKGkQIr-13" target="acf5ywF1OzFSCXKGkQIr-10">
          <mxGeometry width="50" height="50" relative="1" as="geometry">
            <mxPoint x="380" y="330" as="sourcePoint" />
            <mxPoint x="430" y="280" as="targetPoint" />
          </mxGeometry>
        </mxCell>
        <mxCell id="acf5ywF1OzFSCXKGkQIr-19" value="" style="endArrow=none;html=1;rounded=0;" edge="1" parent="1" source="acf5ywF1OzFSCXKGkQIr-12" target="acf5ywF1OzFSCXKGkQIr-7">
          <mxGeometry width="50" height="50" relative="1" as="geometry">
            <mxPoint x="380" y="330" as="sourcePoint" />
            <mxPoint x="430" y="280" as="targetPoint" />
          </mxGeometry>
        </mxCell>
        <mxCell id="acf5ywF1OzFSCXKGkQIr-20" value="" style="endArrow=none;html=1;rounded=0;" edge="1" parent="1" source="acf5ywF1OzFSCXKGkQIr-11" target="acf5ywF1OzFSCXKGkQIr-7">
          <mxGeometry width="50" height="50" relative="1" as="geometry">
            <mxPoint x="380" y="330" as="sourcePoint" />
            <mxPoint x="430" y="280" as="targetPoint" />
          </mxGeometry>
        </mxCell>
        <mxCell id="acf5ywF1OzFSCXKGkQIr-21" value="" style="endArrow=none;html=1;rounded=0;" edge="1" parent="1" source="acf5ywF1OzFSCXKGkQIr-10" target="acf5ywF1OzFSCXKGkQIr-7">
          <mxGeometry width="50" height="50" relative="1" as="geometry">
            <mxPoint x="380" y="330" as="sourcePoint" />
            <mxPoint x="430" y="280" as="targetPoint" />
          </mxGeometry>
        </mxCell>
        <mxCell id="acf5ywF1OzFSCXKGkQIr-22" value="evf" style="rhombus;whiteSpace=wrap;html=1;" vertex="1" parent="1">
          <mxGeometry x="405" y="310" width="50" height="50" as="geometry" />
        </mxCell>
        <mxCell id="acf5ywF1OzFSCXKGkQIr-23" value="" style="endArrow=none;html=1;rounded=0;entryX=1;entryY=1;entryDx=0;entryDy=0;" edge="1" parent="1" source="acf5ywF1OzFSCXKGkQIr-22" target="acf5ywF1OzFSCXKGkQIr-12">
          <mxGeometry width="50" height="50" relative="1" as="geometry">
            <mxPoint x="380" y="330" as="sourcePoint" />
            <mxPoint x="480" y="340" as="targetPoint" />
          </mxGeometry>
        </mxCell>
        <mxCell id="acf5ywF1OzFSCXKGkQIr-24" value="kurzus" style="ellipse;whiteSpace=wrap;html=1;" vertex="1" parent="1">
          <mxGeometry x="620" y="260" width="100" height="60" as="geometry" />
        </mxCell>
        <mxCell id="acf5ywF1OzFSCXKGkQIr-25" value="idopont" style="ellipse;whiteSpace=wrap;html=1;" vertex="1" parent="1">
          <mxGeometry x="570" y="370" width="90" height="60" as="geometry" />
        </mxCell>
        <mxCell id="acf5ywF1OzFSCXKGkQIr-26" value="kredit" style="ellipse;whiteSpace=wrap;html=1;" vertex="1" parent="1">
          <mxGeometry x="420" y="430" width="90" height="60" as="geometry" />
        </mxCell>
        <mxCell id="acf5ywF1OzFSCXKGkQIr-27" value="kurzusnev" style="ellipse;whiteSpace=wrap;html=1;" vertex="1" parent="1">
          <mxGeometry x="650" y="440" width="90" height="60" as="geometry" />
        </mxCell>
        <mxCell id="acf5ywF1OzFSCXKGkQIr-28" value="hely" style="ellipse;whiteSpace=wrap;html=1;" vertex="1" parent="1">
          <mxGeometry x="710" y="380" width="90" height="60" as="geometry" />
        </mxCell>
        <mxCell id="acf5ywF1OzFSCXKGkQIr-29" value="oktato" style="ellipse;whiteSpace=wrap;html=1;" vertex="1" parent="1">
          <mxGeometry x="860" y="430" width="90" height="60" as="geometry" />
        </mxCell>
        <mxCell id="acf5ywF1OzFSCXKGkQIr-30" value="oraado" style="ellipse;whiteSpace=wrap;html=1;dashed=1;" vertex="1" parent="1">
          <mxGeometry x="950" y="360" width="90" height="60" as="geometry" />
        </mxCell>
        <mxCell id="acf5ywF1OzFSCXKGkQIr-31" value="" style="endArrow=none;html=1;rounded=0;" edge="1" parent="1" source="acf5ywF1OzFSCXKGkQIr-26" target="acf5ywF1OzFSCXKGkQIr-24">
          <mxGeometry width="50" height="50" relative="1" as="geometry">
            <mxPoint x="380" y="330" as="sourcePoint" />
            <mxPoint x="430" y="280" as="targetPoint" />
          </mxGeometry>
        </mxCell>
        <mxCell id="acf5ywF1OzFSCXKGkQIr-33" value="" style="endArrow=none;html=1;rounded=0;" edge="1" parent="1" source="acf5ywF1OzFSCXKGkQIr-25" target="acf5ywF1OzFSCXKGkQIr-24">
          <mxGeometry width="50" height="50" relative="1" as="geometry">
            <mxPoint x="380" y="330" as="sourcePoint" />
            <mxPoint x="430" y="280" as="targetPoint" />
          </mxGeometry>
        </mxCell>
        <mxCell id="acf5ywF1OzFSCXKGkQIr-34" value="" style="endArrow=none;html=1;rounded=0;" edge="1" parent="1" source="acf5ywF1OzFSCXKGkQIr-27" target="acf5ywF1OzFSCXKGkQIr-24">
          <mxGeometry width="50" height="50" relative="1" as="geometry">
            <mxPoint x="380" y="330" as="sourcePoint" />
            <mxPoint x="430" y="280" as="targetPoint" />
          </mxGeometry>
        </mxCell>
        <mxCell id="acf5ywF1OzFSCXKGkQIr-35" value="" style="endArrow=none;html=1;rounded=0;" edge="1" parent="1" source="acf5ywF1OzFSCXKGkQIr-28" target="acf5ywF1OzFSCXKGkQIr-24">
          <mxGeometry width="50" height="50" relative="1" as="geometry">
            <mxPoint x="380" y="330" as="sourcePoint" />
            <mxPoint x="430" y="280" as="targetPoint" />
          </mxGeometry>
        </mxCell>
        <mxCell id="acf5ywF1OzFSCXKGkQIr-36" value="" style="endArrow=none;html=1;rounded=0;" edge="1" parent="1" source="acf5ywF1OzFSCXKGkQIr-24" target="acf5ywF1OzFSCXKGkQIr-30">
          <mxGeometry width="50" height="50" relative="1" as="geometry">
            <mxPoint x="380" y="330" as="sourcePoint" />
            <mxPoint x="430" y="280" as="targetPoint" />
          </mxGeometry>
        </mxCell>
        <mxCell id="acf5ywF1OzFSCXKGkQIr-38" value="" style="endArrow=none;html=1;rounded=0;" edge="1" parent="1" source="acf5ywF1OzFSCXKGkQIr-29" target="acf5ywF1OzFSCXKGkQIr-24">
          <mxGeometry width="50" height="50" relative="1" as="geometry">
            <mxPoint x="380" y="330" as="sourcePoint" />
            <mxPoint x="430" y="280" as="targetPoint" />
          </mxGeometry>
        </mxCell>
        <mxCell id="acf5ywF1OzFSCXKGkQIr-39" value="id" style="rhombus;whiteSpace=wrap;html=1;" vertex="1" parent="1">
          <mxGeometry x="490" y="540" width="70" height="65" as="geometry" />
        </mxCell>
        <mxCell id="acf5ywF1OzFSCXKGkQIr-40" value="nyelv" style="rhombus;whiteSpace=wrap;html=1;" vertex="1" parent="1">
          <mxGeometry x="580" y="540" width="70" height="65" as="geometry" />
        </mxCell>
        <mxCell id="acf5ywF1OzFSCXKGkQIr-41" value="jovahagas" style="rhombus;whiteSpace=wrap;html=1;" vertex="1" parent="1">
          <mxGeometry x="670" y="540" width="80" height="70" as="geometry" />
        </mxCell>
        <mxCell id="acf5ywF1OzFSCXKGkQIr-42" value="nyelv" style="rhombus;whiteSpace=wrap;html=1;" vertex="1" parent="1">
          <mxGeometry x="880" y="540" width="70" height="65" as="geometry" />
        </mxCell>
        <mxCell id="acf5ywF1OzFSCXKGkQIr-43" value="id" style="rhombus;whiteSpace=wrap;html=1;" vertex="1" parent="1">
          <mxGeometry x="790" y="540" width="70" height="65" as="geometry" />
        </mxCell>
        <mxCell id="acf5ywF1OzFSCXKGkQIr-44" value="jovahagyas" style="rhombus;whiteSpace=wrap;html=1;" vertex="1" parent="1">
          <mxGeometry x="970" y="540" width="80" height="70" as="geometry" />
        </mxCell>
        <mxCell id="acf5ywF1OzFSCXKGkQIr-45" value="" style="endArrow=none;html=1;rounded=0;" edge="1" parent="1" source="acf5ywF1OzFSCXKGkQIr-39" target="acf5ywF1OzFSCXKGkQIr-27">
          <mxGeometry width="50" height="50" relative="1" as="geometry">
            <mxPoint x="380" y="330" as="sourcePoint" />
            <mxPoint x="430" y="280" as="targetPoint" />
          </mxGeometry>
        </mxCell>
        <mxCell id="acf5ywF1OzFSCXKGkQIr-46" value="" style="endArrow=none;html=1;rounded=0;" edge="1" parent="1" source="acf5ywF1OzFSCXKGkQIr-40" target="acf5ywF1OzFSCXKGkQIr-27">
          <mxGeometry width="50" height="50" relative="1" as="geometry">
            <mxPoint x="380" y="330" as="sourcePoint" />
            <mxPoint x="430" y="280" as="targetPoint" />
          </mxGeometry>
        </mxCell>
        <mxCell id="acf5ywF1OzFSCXKGkQIr-47" value="" style="endArrow=none;html=1;rounded=0;" edge="1" parent="1" source="acf5ywF1OzFSCXKGkQIr-41" target="acf5ywF1OzFSCXKGkQIr-27">
          <mxGeometry width="50" height="50" relative="1" as="geometry">
            <mxPoint x="380" y="330" as="sourcePoint" />
            <mxPoint x="430" y="280" as="targetPoint" />
          </mxGeometry>
        </mxCell>
        <mxCell id="acf5ywF1OzFSCXKGkQIr-48" value="" style="endArrow=none;html=1;rounded=0;" edge="1" parent="1" source="acf5ywF1OzFSCXKGkQIr-43" target="acf5ywF1OzFSCXKGkQIr-29">
          <mxGeometry width="50" height="50" relative="1" as="geometry">
            <mxPoint x="380" y="330" as="sourcePoint" />
            <mxPoint x="430" y="280" as="targetPoint" />
          </mxGeometry>
        </mxCell>
        <mxCell id="acf5ywF1OzFSCXKGkQIr-49" value="" style="endArrow=none;html=1;rounded=0;" edge="1" parent="1" source="acf5ywF1OzFSCXKGkQIr-42" target="acf5ywF1OzFSCXKGkQIr-29">
          <mxGeometry width="50" height="50" relative="1" as="geometry">
            <mxPoint x="380" y="330" as="sourcePoint" />
            <mxPoint x="430" y="280" as="targetPoint" />
          </mxGeometry>
        </mxCell>
        <mxCell id="acf5ywF1OzFSCXKGkQIr-50" value="" style="endArrow=none;html=1;rounded=0;" edge="1" parent="1" source="acf5ywF1OzFSCXKGkQIr-44" target="acf5ywF1OzFSCXKGkQIr-29">
          <mxGeometry width="50" height="50" relative="1" as="geometry">
            <mxPoint x="380" y="330" as="sourcePoint" />
            <mxPoint x="430" y="280" as="targetPoint" />
          </mxGeometry>
        </mxCell>
        <mxCell id="acf5ywF1OzFSCXKGkQIr-51" value="id" style="rhombus;whiteSpace=wrap;html=1;" vertex="1" parent="1">
          <mxGeometry x="510" y="300" width="60" height="60" as="geometry" />
        </mxCell>
        <mxCell id="acf5ywF1OzFSCXKGkQIr-52" value="" style="endArrow=none;html=1;rounded=0;" edge="1" parent="1" source="acf5ywF1OzFSCXKGkQIr-51" target="acf5ywF1OzFSCXKGkQIr-24">
          <mxGeometry width="50" height="50" relative="1" as="geometry">
            <mxPoint x="540" y="230" as="sourcePoint" />
            <mxPoint x="550" y="220" as="targetPoint" />
          </mxGeometry>
        </mxCell>
        <mxCell id="acf5ywF1OzFSCXKGkQIr-53" value="" style="endArrow=none;html=1;rounded=0;" edge="1" parent="1" source="acf5ywF1OzFSCXKGkQIr-24" target="acf5ywF1OzFSCXKGkQIr-9">
          <mxGeometry width="50" height="50" relative="1" as="geometry">
            <mxPoint x="380" y="330" as="sourcePoint" />
            <mxPoint x="430" y="280" as="targetPoint" />
          </mxGeometry>
        </mxCell>
        <mxCell id="acf5ywF1OzFSCXKGkQIr-54" value="" style="endArrow=none;html=1;rounded=0;" edge="1" parent="1" source="acf5ywF1OzFSCXKGkQIr-7" target="acf5ywF1OzFSCXKGkQIr-1">
          <mxGeometry width="50" height="50" relative="1" as="geometry">
            <mxPoint x="380" y="330" as="sourcePoint" />
            <mxPoint x="430" y="280" as="targetPoint" />
          </mxGeometry>
        </mxCell>
        <mxCell id="acf5ywF1OzFSCXKGkQIr-55" value="" style="endArrow=none;html=1;rounded=0;" edge="1" parent="1" source="acf5ywF1OzFSCXKGkQIr-9" target="acf5ywF1OzFSCXKGkQIr-1">
          <mxGeometry width="50" height="50" relative="1" as="geometry">
            <mxPoint x="380" y="330" as="sourcePoint" />
            <mxPoint x="430" y="280" as="targetPoint" />
          </mxGeometry>
        </mxCell>
      </root>
    </mxGraphModel>
  </diagram>
</mxfile>
